Coordinates
version=1
nRows=23
nColumns=27
inDegrees=yes

Units are S.I. units (second, meters, Newtons, ...)
If the header above contains a line with 'inDegrees', this indicates whether rotational values are in degrees (yes) or radians (no).

endheader
time	pelvis_rotation	pelvis_tilt	pelvis_list	pelvis_tx	pelvis_ty	pelvis_tz	hip_flexion_r	hip_adduction_r	hip_rotation_r	knee_angle_r	knee_rotation_r	knee_adduction_r	knee_angle_r_beta	ankle_angle_r	subtalar_angle_r	mtp_angle_r	hip_flexion_l	hip_adduction_l	hip_rotation_l	knee_angle_l	knee_rotation_l	knee_adduction_l	knee_angle_l_beta	ankle_angle_l	subtalar_angle_l	mtp_angle_l
      5.38000000	      6.01035261	    -37.20270394	      4.15088897	     -0.05052785	      0.62006036	     -1.14574110	    106.68281245	    -40.10484150	      8.24636540	     83.33020756	      1.63890545	      9.82707247	      1.45438649	      7.45769510	     -6.25781256	      0.00000000	    103.80047863	    -29.22171026	      8.69765524	     76.90657266	      4.60425029	     -9.87573379	      1.34227291	      5.19085556	     -2.46203591	      0.00000000
      5.38500000	      6.09299469	    -37.30944793	      4.03872254	     -0.05045212	      0.62196375	     -1.14593258	    106.29667456	    -40.26198199	      7.92047394	     82.97218568	      1.81650339	      9.82653230	      1.44813783	      7.38415425	     -6.31255053	      0.00000000	    103.71019354	    -29.10435282	      8.90234836	     76.59652254	      4.85705782	     -9.87471744	      1.33686151	      5.07030666	     -2.67721563	      0.00000000
      5.39000000	      5.76399741	    -37.13881058	      3.91444681	     -0.05019336	      0.62428951	     -1.14605310	    105.63118778	    -39.93506207	      7.66465144	     82.50324068	      1.83231203	      9.67053293	      1.43995319	      7.31804014	     -6.17397606	      0.00000000	    103.11755983	    -29.38424245	      8.59144853	     76.20879514	      4.77082308	     -9.76172594	      1.33009439	      5.04388687	     -2.43268569	      0.00000000
      5.39500000	      6.21963021	    -37.39432708	      4.05405247	     -0.05005465	      0.62566336	     -1.14639465	    105.66268698	    -40.50337433	      7.68740434	     82.31294076	      2.22310978	      9.82416304	      1.43663183	      7.26607811	     -6.25083399	      0.00000000	    103.20996855	    -28.99340365	      8.86298193	     75.97883765	      5.22662937	     -9.87252449	      1.32608088	      4.98080889	     -2.88840662	      0.00000000
      5.40000000	      5.82417858	    -37.19555290	      4.16738634	     -0.04968925	      0.62786036	     -1.14650906	    105.26230640	    -40.02647070	      7.87009954	     81.91032741	      2.27204612	      9.66660209	      1.42960490	      7.20281711	     -6.15791004	      0.00000000	    102.40300270	    -29.43398052	      8.12150426	     75.58304395	      5.05648351	     -9.75814383	      1.31917298	      4.98521648	     -2.52345723	      0.00000000
      5.40500000	      5.94250757	    -37.49756321	      3.63481745	     -0.04961017	      0.62930794	     -1.14667788	    104.70438341	    -40.37515937	      7.00543180	     81.57861630	      2.56886036	      9.82281023	      1.42381545	      7.09910699	     -6.45641680	      0.00000000	    102.93186995	    -29.24957142	      9.20940193	     75.44101189	      5.68611017	     -9.87105458	      1.31669405	      4.80974048	     -3.04892566	      0.00000000
      5.41000000	      5.70462587	    -37.26934518	      3.71809843	     -0.04910410	      0.63145365	     -1.14690073	    104.19690795	    -40.09939205	      7.02456280	     81.18000400	      2.55994610	      9.66330631	      1.41685836	      7.10161783	     -6.18981903	      0.00000000	    102.16769894	    -29.50189639	      8.57526318	     75.07125647	      5.49474731	     -9.75468188	      1.31024060	      4.91272059	     -2.68977556	      0.00000000
      5.41500000	      6.17485757	    -37.52745967	      4.22847418	     -0.04899823	      0.63256754	     -1.14725590	    104.64953842	    -40.55689794	      7.69271509	     81.08524509	      3.04197842	      9.82072598	      1.41520450	      7.01885644	     -6.38496882	      0.00000000	    102.03152074	    -29.19352296	      8.38351934	     74.81324180	      5.90644593	     -9.86910845	      1.30573739	      4.81206640	     -3.11852534	      0.00000000
      5.42000000	      5.91183797	    -37.25433594	      4.22482894	     -0.04841108	      0.63477875	     -1.14746537	    103.99318807	    -40.28957816	      7.49793016	     80.64725725	      2.94467873	      9.66046465	      1.40756017	      6.97067152	     -6.17267973	      0.00000000	    101.25461822	    -29.42310129	      7.81735361	     74.43549595	      5.68303956	     -9.75200450	      1.29914448	      4.88789048	     -2.80801797	      0.00000000
      5.42500000	      6.19949497	    -37.54046801	      4.25444144	     -0.04824409	      0.63586399	     -1.14772047	    104.01981907	    -40.66710267	      7.52683419	     80.48395641	      3.37551514	      9.81934938	      1.40471003	      6.90903803	     -6.41943244	      0.00000000	    101.45900657	    -29.22358819	      8.23828801	     74.26725175	      6.22300434	     -9.86788747	      1.29620807	      4.76961252	     -3.23426062	      0.00000000
      5.43000000	      5.85982520	    -37.20876703	      4.10003094	     -0.04761156	      0.63809304	     -1.14788808	    103.16707088	    -40.34723517	      7.11625577	     80.02381096	      3.22170847	      9.65786699	      1.39667898	      6.85219003	     -6.19418667	      0.00000000	    100.69719316	    -29.49155292	      7.83315438	     73.89906823	      6.01483301	     -9.74934368	      1.28978205	      4.79905771	     -2.91955029	      0.00000000
      5.43500000	      6.23991164	    -37.53924101	      4.29744094	     -0.04736057	      0.63906571	     -1.14824513	    103.39804498	    -40.80254250	      7.38529739	     79.90312819	      3.70624509	      9.81816919	      1.39457267	      6.79468842	     -6.40321798	      0.00000000	    100.87069050	    -29.23725828	      8.04795152	     73.74426124	      6.49896544	     -9.86640180	      1.28708016	      4.74653127	     -3.32310847	      0.00000000
      5.44000000	      6.09339116	    -37.53101450	      4.33343297	     -0.04697132	      0.64063385	     -1.14840357	    103.15630842	    -40.65392900	      7.49656970	     79.61215172	      3.91927798	      9.81721690	      1.38949417	      6.70865777	     -6.56231045	      0.00000000	    100.50321214	    -29.43980458	      7.86069396	     73.47657850	      6.67222535	     -9.86572162	      1.28240822	      4.70666686	     -3.35302379	      0.00000000
      5.44500000	      6.20161211	    -37.50807441	      4.39392615	     -0.04644357	      0.64220119	     -1.14869363	    102.83421073	    -40.81548962	      7.40542784	     79.33377182	      4.06147035	      9.81662780	      1.38463553	      6.67691753	     -6.51273723	      0.00000000	    100.19279239	    -29.35606721	      7.76511975	     73.21870272	      6.79203784	     -9.86485047	      1.27790744	      4.70128028	     -3.40189385	      0.00000000
      5.45000000	      5.97607388	    -37.20955032	      4.28840073	     -0.04559314	      0.64438618	     -1.14888985	    102.02337424	    -40.60979131	      6.95195849	     78.89121647	      3.85250385	      9.65363618	      1.37691148	      6.68206035	     -6.22750281	      0.00000000	     99.46681197	    -29.51834172	      7.31069329	     72.85952282	      6.51798070	     -9.74465578	      1.27163856	      4.77467102	     -3.00918307	      0.00000000
      5.45500000	      6.26214972	    -37.48546042	      4.36498425	     -0.04533486	      0.64533726	     -1.14918711	    102.09160700	    -40.98015607	      7.10477321	     78.75084867	      4.34367764	      9.81531070	      1.37446160	      6.61706754	     -6.50352115	      0.00000000	     99.64189680	    -29.33192112	      7.69784796	     72.71170569	      7.07101766	     -9.86304074	      1.26905867	      4.68528903	     -3.47805684	      0.00000000
      5.46000000	      6.23111888	    -37.46513111	      4.34654039	     -0.04473124	      0.64687625	     -1.14942570	    101.73262787	    -40.99618609	      6.98156769	     78.46461038	      4.47420238	      9.81445076	      1.36946580	      6.58491929	     -6.53579256	      0.00000000	     99.34086048	    -29.38657552	      7.62746422	     72.47183123	      7.20613973	     -9.86230933	      1.26487207	      4.68057046	     -3.50165102	      0.00000000
      5.46500000	      6.15249287	    -37.44669771	      4.37029180	     -0.04419040	      0.64844442	     -1.14967427	    101.43380162	    -40.94016028	      7.00647216	     78.16862863	      4.65856573	      9.81334506	      1.36429994	      6.48761010	     -6.63612088	      0.00000000	     98.98544885	    -29.48301428	      7.47059958	     72.21113005	      7.33229623	     -9.86156337	      1.26032198	      4.66181613	     -3.57067017	      0.00000000
      5.47000000	      6.21368072	    -37.41644370	      4.54741252	     -0.04349780	      0.64990682	     -1.14996798	    101.26077231	    -41.02835698	      7.13273698	     77.93776194	      4.79596076	      9.81278905	      1.36027056	      6.48832112	     -6.52945144	      0.00000000	     98.56636423	    -29.47515737	      7.17419163	     71.95963289	      7.41829503	     -9.86066091	      1.25593252	      4.72013880	     -3.52190043	      0.00000000
      5.47500000	      6.33064704	    -37.39882435	      4.53041211	     -0.04283806	      0.65146484	     -1.15029227	    100.83194943	    -41.21144077	      6.89510802	     77.63842371	      4.92140884	      9.81186836	      1.35504612	      6.46229477	     -6.52659657	      0.00000000	     98.32022735	    -29.34692091	      7.20635919	     71.71277465	      7.53964083	     -9.85987779	      1.25162403	      4.69493447	     -3.62353897	      0.00000000
      5.48000000	      6.31648902	    -37.36605927	      4.54559509	     -0.04215475	      0.65304908	     -1.15055346	    100.47411933	    -41.24265809	      6.78743955	     77.34571916	      5.04608593	      9.81078682	      1.34993746	      6.42702136	     -6.54323415	      0.00000000	     97.97264545	    -29.37037531	      7.09243431	     71.45601818	      7.65341716	     -9.85906793	      1.24714279	      4.70021230	     -3.67150790	      0.00000000
      5.48500000	      6.16129786	    -37.33776731	      4.49296620	     -0.04144706	      0.65454798	     -1.15078625	    100.12397298	    -41.13360660	      6.71129633	     77.05861784	      5.17467358	      9.80970147	      1.34492660	      6.35498747	     -6.59353350	      0.00000000	     97.63760454	    -29.53870509	      6.98395021	     71.23638124	      7.76958898	     -9.85818399	      1.24330940	      4.72944599	     -3.62490656	      0.00000000
      5.49000000	      6.15274643	    -37.33535332	      4.40527987	     -0.04074048	      0.65616852	     -1.15106128	     99.66628148	    -41.18218851	      6.43967320	     76.73214707	      5.29238433	      9.80901476	      1.33922861	      6.30443474	     -6.64517546	      0.00000000	     97.39665468	    -29.52768659	      7.01993422	     70.98622256	      7.89453880	     -9.85727679	      1.23894331	      4.70250598	     -3.74259827	      0.00000000
